<?xml version="1.0" encoding="UTF-8" standalone="no"?>
<svg
   xmlns:dc="http://purl.org/dc/elements/1.1/"
   xmlns:cc="http://creativecommons.org/ns#"
   xmlns:rdf="http://www.w3.org/1999/02/22-rdf-syntax-ns#"
   xmlns:svg="http://www.w3.org/2000/svg"
   xmlns="http://www.w3.org/2000/svg"
   xmlns:sodipodi="http://sodipodi.sourceforge.net/DTD/sodipodi-0.dtd"
   xmlns:inkscape="http://www.inkscape.org/namespaces/inkscape"
   inkscape:version="1.0beta2 (2b71d25, 2019-12-03)"
   sodipodi:docname="jelly-party-logo.svg"
   id="svg2199"
   version="1.1"
   viewBox="-55 0 4122 1500"
   width="140"
   height="47">
  <metadata
     id="metadata2205">
    <rdf:RDF>
      <cc:Work
         rdf:about="">
        <dc:format>image/svg+xml</dc:format>
        <dc:type
           rdf:resource="http://purl.org/dc/dcmitype/StillImage" />
      </cc:Work>
    </rdf:RDF>
  </metadata>
  <defs
     id="defs2203" />
  <sodipodi:namedview
     inkscape:current-layer="svg2199"
     inkscape:window-maximized="1"
     inkscape:window-y="0"
     inkscape:window-x="0"
     inkscape:cy="13.197777"
     inkscape:cx="40.453696"
     inkscape:zoom="11.313708"
     showgrid="false"
     id="namedview2201"
     inkscape:window-height="1366"
     inkscape:window-width="2560"
     inkscape:pageshadow="2"
     inkscape:pageopacity="0"
     guidetolerance="10"
     gridtolerance="10"
     objecttolerance="10"
     borderopacity="1"
     inkscape:document-rotation="0"
     bordercolor="#666666"
     pagecolor="#ffffff" />
  <path
     id="path2197"
     d="M3826 1169q0 27.5508 5.3994 54 10.8652 53.2314 43.6006 102 49 73 91 73 36 0 36-64 0-47-35-144-13-36-39-106.5T3887 970q-61 93-61 199zm220 77q0 98-33 146.5t-84 48.5q-65 0-119.5-69.5T3755 1199q7-71 38.5-131t84.5-124q-34-93-47-147-43 55-99 55t-98-57q-42-57-42-164 0-11 16-15 48-10 55-10 12 0 12 12 0 91 41 143 26 32 65 32 21 0 44-19-15-67-15-112.5t21-66.5q43-25 48-25 10 0 10 15 0 109 40 230l17 53q75-81 114-139l7 12q-24 38-44 62t-42.5 50q-22.5 26-28.5 33 73 209 80 245 14 71 14 115zm-703-889q16 470 145 470 55 0 132-98l7 12q-94 140-179.5 140T3309 750.5Q3256 620 3253 403q-124 65-132 65-13 0-13-14t14-22l131-70q2-76 7-144 0-9 9-12 60-24 67.5-24t7.5 9q-2 50-2 91v32l52-28q211-113 216.5-113t8.5 3q22 22 22 25t-6 7.5q-6 4.5-44.5 24t-115 57.5q-76.5 38-132.5 67zm-340 317l-19-1q-10 0-14 9-12 30-38 68l-8-11q20-27 31-68 0-8-7-11-45-15-45-79 0-14 24-26.5t40-12.5q16 0 16 14 0 75 70 75 17 0 27.5-3.5t11.5-3.5q10 0 10 14.5t-7.5 20q-7.5 5.5-16.5 23t-9 40.5q0 45 26.5 70.5t66 25.5q39.5 0 78.5-23t68-66l7 12q-35 61-97 98t-111 37q-100 0-100-91 0-17 12-46t24-49l12-20q0-4-3-4-32 8-49 8zm-350-97q3-6 54.5-6t51.5 15q0 3-6 12-35 48-35 100t24.5 85.5Q2767 817 2805 817q62 0 126-88l7 12q-78 124-172 124-71 0-109-73-16 24-52 45t-68 21q-87 0-87-73 0-57 48.5-119.5T2594 603q4 0 4 3t-4 7q-21 11-35.5 45.5T2544 729q0 73 56 73 16 0 30.5-8.5T2648 769q-13-35-13-73t3-64q8-55 15-55zm-515 242l27-27q2-1 5.5-1t3.5 8q0 36 31 36 32-2 53.5-43.5t21.5-85q0-43.5-16.5-69T2214 612q-82 0-82 136 0 27 6 71zm115 37q55 0 120-34t103-93l7 12q-48 74-118 112.5T2233 892q-62 0-89-32 7 49 22 133 31 184 31 205.5t-6 24q-6 2.5-21 12.5-35 22-40 22-16 0-18-28-18-170-50.5-383t-33-226.5q-.5-13.5 26-48t39.5-34q13 .5 13 25.5l17 124q7-32 29-70 43-78 122-78t79 79q0 54-36 124.5T2238 855q5 1 15 1zm-707 313q0 83 49 156t91 73q36 0 36-64 0-47-35-144-13-36-39-106.5T1607 970q-61 93-61 199zm220 77q0 98-33 146.5t-84 48.5q-65 0-119.5-69.5T1475 1199q7-71 38.5-131t84.5-124q-34-93-47-147-43 55-99 55t-98-57q-42-57-42-164 0-11 16-15 48-10 55-10 12 0 12 12 0 91 41 143 26 32 65 32 21 0 44-19-15-67-15-112.5t21-66.5q43-25 48-25 10 0 10 15 0 109 40 230l17 53q75-81 114-139l7 12q-24 38-44 62t-42.5 50q-22.5 26-28.5 33 73 209 80 245 14 71 14 115zM1183 162q0-121-86-121-76 0-119.5 102T934 401.5Q934 558 990 679q70-92 131.5-250.5T1183 162zm-11 660q44 0 89-25t73-68l7 12q-38 66-105.5 104.5T1104 884h-3q-77 0-132-59-106-112-106-344 0-121 31.5-228T994 73q68-73 159-73 105 0 105 128 0 113-76.5 279T999 698q65 124 173 124zM793 162q0-121-86-121-76 0-119.5 102T544 401.5Q544 558 600 679q70-92 131.5-250.5T793 162zm-11 660q44 0 89-25t73-68l7 12q-38 66-105.5 104.5T714 884h-3q-77 0-132-59-106-112-106-344 0-121 31.5-228T604 73Q672 0 763 0q105 0 105 128 0 113-76.5 279T609 698q65 124 173 124zM336.5 541.5l1-13q0-12-27-12t-48.5 16q-21.5 16-21.5 43 0 48 69 48 11 0 22.5-3.5t23.5-3.5q12 0 12 8 0 1-8 4.5T340 639.5q-11.5 7-23.5 18-28 26-28 71t27 68.5q27 23.5 70 23.5t88-25q45-25 73-68l7 12q-38 66-105.5 104.5-53.2314 30.3613-99 36.7793-12.2686 1.7207-24 1.7207-55.5 0-85-23T210.5 800q0-36.5 18-67.5T260 688q13.5-13.5 20-19t6.5-8q0-2.5-1-2.5-32 12-62 12-53 0-53-43 0-58 66-100t115.5-42q49.5 0 49.5 24 0 15-16 32t-29 17q-20 0-20-17zM58 444q0 24-15 41T6.5 502q-21.5 0-37-17T-46 444q0-24 15.5-41t37-17Q28 386 43 403t15 41zm-29 740q0 59 22.5 126.5t52 111q29.5 43.5 51 43.5t21.5-54q0-50-18-120t-25.5-97q-7.5-27-30-104.5T75 994q-46 89-46 190zM-1 650q-13 15-33.5 15T-55 654q0-8 11-12 55-21 82.5-43.5T70 576q11 0 11 17 7 120 46 286 92-117 115-150l7 12q-19 31-62 88t-55 73q12 50 40 159 54 206 54 280.5T201.5 1458q-24.5 42-63.5 42-62 0-121-86.5T-42 1214q13-126 107-255Q5 748-1 650z" />
</svg>
